<?xml version="1.0" encoding="iso-8859-1"?>
<!-- Generator: Adobe Illustrator 16.0.0, SVG Export Plug-In . SVG Version: 6.00 Build 0)  -->
<!DOCTYPE svg PUBLIC "-//W3C//DTD SVG 1.1//EN" "http://www.w3.org/Graphics/SVG/1.1/DTD/svg11.dtd">
<svg version="1.1" id="Layer_1" xmlns="http://www.w3.org/2000/svg" xmlns:xlink="http://www.w3.org/1999/xlink" x="0px" y="0px"
	 width="300px" height="300px" viewBox="0 0 300 300" style="enable-background:new 0 0 300 300;" xml:space="preserve">
<g>
	<path style="fill-rule:evenodd;clip-rule:evenodd;" d="M136.639,266.224c-2.217-13.748-4.35-27.508-6.499-41.266
		c-0.717-4.585-1.399-9.175-2.108-13.761c-0.229-1.473-0.492-2.94-1.413-4.315c0.6,4.473,1.182,8.946,1.802,13.416
		c0.963,6.945,1.906,13.893,2.956,20.824c0.303,2.001-0.471,2.725-2.346,2.998c0,0-1.511-0.247-2.293-1.171
		c-0.782-0.925-1.073-3.003-1.073-3.003c-2.364-11.7-4.78-23.391-7.081-35.104c-0.438-2.231-1.917-1.959-3.42-1.916
		c-12.408,0.353-24.817,0.789-37.233,0.618c-8.813-0.122-17.632,0.118-26.439-0.467c-4.383-0.291-4.4-0.196-5.242,4.241
		c-2.189,11.541-4.464,23.067-6.488,34.639c-0.592,3.378-2.941,5.428-5.084,7.387c-2.223,2.031-2.634,1.618-3.336,5.539
		c-0.734,4.103-1.492,8.206-2.027,12.337c-0.324,2.505-1.272,3.885-3.989,3.537c-2.973-0.381-1.967-2.649-1.823-4.198
		c1.295-14.052,2.621-28.101,4.105-42.133c1.924-18.18,3.982-36.346,6.026-54.512c0.583-5.177,1.214-10.353,2.036-15.495
		c0.328-2.053-0.241-2.721-2.235-2.836c-3.023-0.176-6.047-0.49-9.046-0.912c-3.4-0.479-4.468-2.126-2.399-4.769
		c2.467-3.152,1.268-5.242-0.417-7.977c-1.84-2.986-3.609-5.53-7.384-6.391c-2.673-0.608-4.751-2.564-6.455-4.868
		C-2.994,112.159-2.489,91.391,8.804,76.194c10.436-14.041,24.877-21.924,41.099-26.989c15.996-4.994,32.381-5.708,48.945-3.562
		c15.692,2.032,30.171,7.21,43.11,16.439c0.616,0.44,1.224,0.899,1.798,1.393c4.605,3.962,4.185,9.943-0.884,13.451
		c-1.031,0.714-1.879,0.402-2.54-0.289c-2.191-2.289-2.575-0.657-3.045,1.252c-3.012,12.237-6.026,24.474-9.109,36.693
		c-1.692,6.708-3.503,13.387-5.304,20.067c-0.425,1.575-0.562,3.104,1.586,2.968c7.369-0.471,11.865,4.679,17.076,8.461
		c1.167,0.848,1.895,2.006,1.592,3.399c-0.312,1.436-1.8,1.207-2.851,1.351c-2.719,0.372-5.452,0.705-8.19,0.842
		c-1.86,0.094-2.626,0.418-2.347,2.652c2.302,18.422,4.54,36.853,6.612,55.301c1.776,15.81,3.305,31.647,4.956,47.472
		c0.334,3.202,0.819,6.392,1.068,9.601c0.222,2.859-0.583,3.793-3.392,3.4c0,0-0.443-0.055-1.367-1.192
		C136.693,267.767,136.639,266.224,136.639,266.224z M79.536,152.402c-7.101,0-14.199,0.002-21.299-0.003
		c-1.342-0.001-2.585-0.165-2.904,1.79c-2.285,14.013-4.635,28.016-7.033,42.009c-0.318,1.858,0.555,2.147,2.007,2.099
		c3.879-0.133,7.757-0.314,11.638-0.388c17.235-0.322,34.469-0.338,51.698,0.348c3.637,0.146,3.697,0.037,2.956-3.627
		c-2.629-12.992-5.018-26.029-7.038-39.127c-0.414-2.684-1.558-3.227-3.898-3.067C96.962,153.028,88.246,152.759,79.536,152.402z
		 M81.944,57.345c-0.001-0.093-0.003-0.187-0.005-0.279c-3.024,0.15-6.048,0.317-9.073,0.444c-2.214,0.093-2.927,1.263-2.68,3.36
		c0.31,2.63,0.451,5.278,0.732,7.912c1.375,12.891,2.395,25.812,3.194,38.747c0.543,8.782,0.86,17.578,1.2,26.371
		c0.069,1.805,0.768,2.583,2.566,2.532c2.366-0.067,4.74-0.148,7.101-0.023c2.431,0.128,3.258-0.78,3.302-3.27
		c0.16-8.895,0.402-17.792,0.897-26.674c0.869-15.59,1.933-31.17,2.963-46.752c0.116-1.763-0.566-2.409-2.247-2.381
		C87.246,57.377,84.596,57.345,81.944,57.345z M99.053,136.474c0.187,0,0.86-0.075,1.513,0.013c2.915,0.396,4.127-0.593,4.379-3.777
		c0.531-6.696,1.464-13.371,2.476-20.018c2.396-15.732,4.904-31.448,7.448-47.157c0.388-2.401-0.19-3.713-2.685-4.33
		c-4.602-1.139-9.211-2.181-13.885-3.003c-2.532-0.446-3.155,0.397-3.221,2.727c-0.259,9.28-0.819,18.555-0.943,27.836
		c-0.183,13.745-0.84,27.46-1.685,41.177C91.98,137.55,91.898,136.271,99.053,136.474z M65.123,136.449
		c6.61-0.249,6.475,1.112,5.925-5.989c-0.943-12.175-1.617-24.362-2.16-36.561c-0.488-10.971-1.167-21.933-1.694-32.901
		c-0.095-1.971-0.708-2.68-2.792-2.271c-4.558,0.894-9.093,1.838-13.499,3.332c-3.683,1.249-3.702,1.276-2.915,5.029
		c4.414,21.04,8.083,42.208,10.598,63.56C59.34,137.059,58.793,136.446,65.123,136.449z M113.589,136.978
		c5.346,0.059,4.35,0.312,5.562-4.281c1.641-6.222,3.124-12.484,4.814-18.692c3.48-12.784,6.982-25.562,10.647-38.293
		c0.712-2.474,0.158-3.834-1.954-5.1c-3.413-2.046-6.778-4.155-10.47-5.682c-3.617-1.498-3.797-1.354-4.285,2.546
		c-1.434,11.451-2.943,22.894-4.362,34.348c-1.325,10.706-2.822,21.388-4.591,32.029c-0.365,2.199,0.355,3.27,2.651,3.131
		C112.261,136.943,112.926,136.978,113.589,136.978z M49.918,136.949c0.379,0,0.758,0.004,1.137-0.002
		c4.165-0.062,4.224-0.09,3.61-4.138c-1.306-8.611-2.697-17.211-3.98-25.825c-1.966-13.202-3.663-26.443-5.953-39.599
		c-0.397-2.285-1.075-2.617-3.089-1.595c-4.145,2.106-8.204,4.324-12.043,6.96c-1.666,1.145-2.091,2.304-1.458,4.289
		c5.9,18.498,11.623,37.052,16.491,55.857C45.699,137.015,45.76,136.999,49.918,136.949z M38.283,137.546
		c3.085-0.015,3.284-0.296,2.472-3.107c-2.495-8.639-5.031-17.268-7.46-25.926c-2.685-9.569-5.324-19.153-7.861-28.763
		c-0.658-2.493-1.441-2.148-2.791-0.584c-2.669,3.095-5.051,6.376-6.917,10.024c-0.649,1.271-0.731,2.418-0.062,3.759
		c6.978,13.979,13.745,28.058,19.535,42.581C35.822,137.095,36.802,137.802,38.283,137.546z M13.553,96.39
		c-2.27,4.727-2.019,12.073,0.353,15.932c5.145,8.373,10.903,16.367,15.512,25.074c0.369,0.696,0.725,1.849,1.817,1.268
		c1.104-0.589,0.26-1.543-0.048-2.228c-2.674-5.948-5.469-11.844-8.097-17.812C19.9,111.372,16.838,104.064,13.553,96.39z
		 M124.977,195.267c0.154-0.017,0.309-0.034,0.464-0.052c0.035-0.256,0.134-0.521,0.097-0.767
		c-2.044-13.354-3.821-26.743-5.408-40.159c-0.084-0.71,0.073-1.83-0.953-1.741c-1.355,0.116-0.73,1.311-0.617,2.029
		c1.564,9.894,3.182,19.778,4.762,29.67C123.906,187.915,124.426,191.594,124.977,195.267z"/>
	<path style="fill-rule:evenodd;clip-rule:evenodd;" d="M251.395,211.978c-1.549-15.454-3-30.919-4.484-46.38
		c-0.429-4.462-0.425-4.532-4.866-5.021c-7.438-0.818-14.894-1.468-22.325-2.338c-2.193-0.257-2.351,1.028-2.472,2.498
		c-0.682,8.213-1.333,16.43-2,24.644c-0.122,1.511-0.314,3.016-0.395,4.527c-0.102,1.906-1.213,2.354-2.884,2.227
		c-1.887-0.143-1.555-1.384-1.521-2.658c0.267-9.664,0.414-19.332,0.753-28.993c0.089-2.527-0.867-3.181-3.261-3.808
		c-8.71-2.279-16.901,0.592-25.26,1.924c-1.739,0.277-1.8,1.772-2.085,3.022c-2.526,11.087-5.025,22.181-7.523,33.273
		c-0.603,2.68-1.224,5.356-1.734,8.054c-0.384,2.028-1.605,2.68-3.478,2.366c-2.198-0.368-1.294-2.016-1.095-3.149
		c5.066-28.833,9.6-57.763,15.74-86.396c0.561-2.616-0.047-3.673-2.676-3.766c-1.316-0.046-2.625-0.356-3.937-0.553
		c-0.827-0.124-1.833-0.04-2.12-1.068c-0.261-0.93,0.41-1.643,0.986-2.241c2.592-2.694,5.705-3.885,9.498-3.413
		c4.774,0.593,9.569,1.015,14.45,1.051c-1.141-0.297-2.28-0.593-3.709-0.965c0.945-0.98,1.99-0.754,2.901-0.76
		c3.791-0.022,7.584-0.028,11.374,0.053c1.866,0.039,2.479-0.579,2.229-2.537c-1.849-14.473-3.217-28.996-4.368-43.539
		c-0.074-0.942-0.248-1.878-0.414-2.81c-0.174-0.977-0.748-1.215-1.657-0.86c-1.314,0.513-2.597,1.86-3.964-0.031
		c-1.525-2.111-3.079-4.144-1.998-6.998c0.678-1.791,1.991-2.983,3.544-3.943c8.052-4.978,16.782-8.413,25.883-10.816
		c14.036-3.706,28.225-4.871,42.419-0.905c11.051,3.088,20.5,8.613,25.798,19.349c5.268,10.675,3.697,21.218-1.533,31.402
		c-3.856,7.508-9.244,13.859-15.781,19.206c-1.948,1.593-3.281,3.674-4.626,5.716c-0.517,0.783-1.669,1.915,0.106,3.018
		c0.839,0.521-0.046,1.576-0.501,2.229c-1.396,2.003-3.257,3.584-5.609,4.141c-2.393,0.565-2.7,1.642-2.083,3.835
		c3.083,10.946,6.125,21.904,9.004,32.905c3.791,14.485,7.432,29.01,11.076,43.533c0.25,0.995,1.038,2.259-0.173,3.144
		c-0.902,0.66-2.012,0.518-2.98-0.001c-0.947-0.506-0.998-1.573-1.272-2.448c-3.63-11.576-7.221-23.163-10.842-34.741
		c-1.676-5.357-1.319-4.301-5.279-2.294c-3.133,1.588-6.258,3.213-9.62,4.219c-2.298,0.688-2.746,1.985-2.628,4.219
		c0.773,14.66,1.999,29.298,2.255,43.983c0.063,3.643-1.897,4.297-3.238,3.394C251.68,215.571,251.395,211.978,251.395,211.978z
		 M218.242,149.463c-0.332,3.821-0.147,4.028,3.509,4.429c6.863,0.751,13.722,1.538,20.586,2.276
		c3.288,0.354,3.661,0.013,3.418-3.281c-0.789-10.658-1.793-21.304-2.327-31.974c-0.16-3.202-1.575-3.672-4.114-3.794
		c-5.194-0.249-10.394-0.517-15.565-1.031c-2.542-0.253-3.583,0.428-3.717,3.066C219.52,129.261,218.852,139.36,218.242,149.463z
		 M212.609,119.286c0.382-3.825,0.388-3.897-3.511-4.287c-5.177-0.518-10.374-0.83-15.546-1.391c-2.22-0.24-3.256,0.397-3.627,2.693
		c-1.934,11.96-4.652,23.768-7.213,35.604c-0.548,2.532,0.237,2.793,2.401,2.16c7.551-2.208,15.269-3.715,23.014-5.003
		c2.595-0.432,3.514-1.381,3.573-3.963C211.896,136.493,212.291,127.891,212.609,119.286z M244.119,44.109
		c0.106-3.176-0.313-3.667-3.158-3.128c-3.629,0.686-7.209,1.623-10.825,2.378c-1.825,0.381-2.49,1.418-2.382,3.224
		c0.191,3.215,0.424,6.437,0.392,9.653c-0.138,14.025,0.856,28.039,0.326,42.071c-0.236,6.259-0.06,6.265,5.98,6.959
		c0.376,0.043,0.754,0.092,1.126,0.163c2.338,0.447,3.35-0.246,3.506-2.891c0.531-8.982,1.294-17.952,2.082-26.917
		C242.094,65.053,243.141,54.493,244.119,44.109z M248.176,106.271c2.456,0.82,3.41-0.571,3.68-3.275
		c0.386-3.86,1.001-7.701,1.622-11.534c2.561-15.801,5.604-31.515,8.633-47.229c0.607-3.153,0.2-3.812-2.942-3.944
		c-3.217-0.136-6.442-0.002-9.662-0.083c-1.797-0.045-2.648,0.807-2.742,2.489c-0.17,3.025-0.194,6.06-0.429,9.079
		c-1.259,16.234-2.008,32.507-3.743,48.707C242.005,105.955,242.188,105.975,248.176,106.271z M225.086,74.842
		c0-8.807-0.007-17.612,0.004-26.418c0.004-3.231-0.334-3.493-3.439-2.281c-3.085,1.204-6.058,2.674-9.083,4.005
		c-2.879,1.268-3.208,3.04-2.854,5.848c1.739,13.798,3.464,27.603,4.819,41.442c0.827,8.447,0.383,6.769,7.667,7.144
		c2.338,0.12,3.2-0.625,3.038-3.046C224.643,92.647,224.929,83.741,225.086,74.842z M259.406,107.285
		c1.798,0.387,2.488-0.728,2.856-2.456c3.709-17.429,8.502-34.582,13.138-51.775c2.28-8.459,1.986-8.766-6.736-11.175
		c-2.573-0.711-3.564-0.154-3.99,2.514c-3.161,19.825-5.61,39.767-9.566,59.462c-0.449,2.238,0.164,3.202,2.412,3.201
		C258.084,107.056,258.648,107.188,259.406,107.285z M255.63,118.127c-4.592-0.106-4.725,0.018-4.46,4.206
		c0.09,1.417,0.289,2.827,0.379,4.243c0.605,9.543,1.217,19.085,1.768,28.632c0.098,1.693,0.775,2.332,2.476,2.787
		c3.76,1.008,6.783-0.755,10.069-1.884c2.593-0.891,2.953-2.191,2.209-4.676c-2.99-9.98-5.857-19.999-8.616-30.045
		C258.811,119.049,258.011,117.494,255.63,118.127z M267.365,102.841c1.835-1.3,3.757-2.441,4.677-4.929
		c4.537-12.263,9.207-24.476,13.894-36.683c2.25-5.858,2.21-6.314-2.331-10.833c-0.202-0.2-0.403-0.401-0.609-0.597
		c-2.813-2.682-3.09-2.607-4.021,1.257c-3.24,13.447-6.449,26.902-9.703,40.347c-0.802,3.314-1.743,6.596-2.583,9.901
		C266.547,101.859,266.104,102.647,267.365,102.841z M278.455,91.484c0.145,0.085,0.289,0.171,0.435,0.257
		c3.688-6.581,7.554-13.069,10.989-19.779c1.72-3.357,0.886-7.021-0.733-10.544C285.582,71.439,282.019,81.462,278.455,91.484z"/>
</g>
</svg>
