<?xml version="1.0" encoding="utf-8"?>
<!-- Generator: Adobe Illustrator 16.0.0, SVG Export Plug-In . SVG Version: 6.00 Build 0)  -->
<!DOCTYPE svg PUBLIC "-//W3C//DTD SVG 1.1//EN" "http://www.w3.org/Graphics/SVG/1.1/DTD/svg11.dtd">
<svg version="1.1" id="Layer_1" xmlns="http://www.w3.org/2000/svg" xmlns:xlink="http://www.w3.org/1999/xlink" x="0px" y="0px"
	 width="231.434px" height="231.434px" viewBox="0 0 231.434 231.434" enable-background="new 0 0 231.434 231.434"
	 xml:space="preserve">
<g id="Layer_1_1_">
</g>
<g id="Layer_2">
</g>
<g id="Layer_4">
	<g>
		<g>
			<g>
				<path d="M115.716,231.434C51.909,231.434,0,179.524,0,115.716C0,51.91,51.91,0,115.716,0
					c63.807,0,115.717,51.91,115.717,115.716C231.433,179.523,179.523,231.434,115.716,231.434z M115.716,1.33
					C52.643,1.33,1.329,52.643,1.329,115.716s51.312,114.388,114.387,114.388c63.073,0,114.387-51.312,114.387-114.388
					C230.103,52.644,178.789,1.33,115.716,1.33z"/>
			</g>
		</g>
		<g>
			<g>
				<g>
					<path d="M113.63,226.764l-1.719-0.058c-28.86-0.975-55.84-12.95-75.969-33.725c-20.177-20.823-31.288-48.265-31.288-77.267
						s11.111-56.442,31.288-77.266C56.071,17.675,83.049,5.699,111.91,4.726l1.719-0.058v108.96h-56.51v4.173h56.51L113.63,226.764
						L113.63,226.764z M110.304,8.122C82.958,9.474,57.455,21.025,38.329,40.765c-19.571,20.2-30.351,46.818-30.351,74.952
						s10.778,54.752,30.351,74.952c19.126,19.739,44.629,31.291,71.975,32.644V121.128H53.796v-10.824h56.509L110.304,8.122
						L110.304,8.122z"/>
				</g>
			</g>
			<g>
				<g>
					<path d="M117.802,226.764V4.669l1.721,0.058c28.859,0.974,55.84,12.949,75.969,33.725
						c20.176,20.822,31.285,48.264,31.285,77.265c0,29.002-11.109,56.442-31.285,77.267c-20.129,20.773-47.107,32.75-75.969,33.725
						L117.802,226.764z M121.129,8.122V223.31c27.346-1.352,52.848-12.901,71.973-32.643c19.572-20.2,30.352-46.818,30.352-74.952
						c0-28.133-10.777-54.752-30.352-74.952C173.976,21.025,148.474,9.474,121.129,8.122z"/>
				</g>
			</g>
		</g>
	</g>
</g>
</svg>
