<?xml version="1.0" encoding="iso-8859-1"?>
<!-- Generator: Adobe Illustrator 16.0.0, SVG Export Plug-In . SVG Version: 6.00 Build 0)  -->
<!DOCTYPE svg PUBLIC "-//W3C//DTD SVG 1.1//EN" "http://www.w3.org/Graphics/SVG/1.1/DTD/svg11.dtd">
<svg version="1.1" id="Layer_1" xmlns="http://www.w3.org/2000/svg" xmlns:xlink="http://www.w3.org/1999/xlink" x="0px" y="0px"
	 width="30px" height="30px" viewBox="0 0 30 30" style="enable-background:new 0 0 30 30;" xml:space="preserve">
<g>
	<path style="fill:none;" d="M17.438,18.555c-0.039,0.046-0.077,0.094-0.117,0.138l0,0C17.361,18.648,17.399,18.601,17.438,18.555z"
		/>
	<polygon style="fill:none;" points="17.318,18.695 17.318,18.695 17.316,18.692 	"/>
	<path style="fill:none;" d="M17.321,18.692c0.072-0.001,0.148,0.011,0.22,0.01C17.47,18.703,17.394,18.691,17.321,18.692
		L17.321,18.692z"/>
	<path d="M23.435,6.287c-1.097,0.017-2.192,0.032-3.289,0.042c-0.667,0.006-1.333-0.003-2,0.001
		c-1.904,0.013-3.81,0.041-5.714,0.039c-1.039-0.001-2.078-0.057-3.117-0.075C8.57,6.281,7.826,6.291,7,6.291
		C6.696,6.287,6.491,6.524,6.526,6.91c0.035,0.384,0.065,0.77,0.068,1.155C6.598,8.521,6.559,8.977,6.56,9.433
		c0.001,0.604,0.032,1.208,0.037,1.812c0.007,0.927,0.004,1.854,0.004,2.782c0,0.872,0,1.744-0.004,2.616
		c-0.001,0.225-0.021,0.448-0.02,0.673c0.003,0.561,0.015,1.121,0.02,1.682c0.002,0.202-0.013,0.404-0.008,0.606
		c0.012,0.442,0.055,0.885,0.043,1.326C6.611,21.7,6.557,22.471,6.52,23.24c-0.012,0.251,0.139,0.422,0.389,0.424
		c0.189,0.001,0.378-0.03,0.567-0.034c0.801-0.016,1.602-0.035,2.402-0.034c0.357,0,0.714,0.07,1.07,0.069
		c1.188-0.002,2.375-0.023,3.563-0.034c0.35-0.004,0.7,0.003,1.051-0.001c1.097-0.013,2.192-0.031,3.289-0.043
		c0.196-0.002,0.393,0.032,0.588,0.025c0.371-0.014,0.742-0.06,1.113-0.064c0.729-0.012,1.46-0.01,2.19,0
		c0.208,0.003,0.42,0.036,0.624,0.083c0.345,0.079,0.545-0.084,0.527-0.438c-0.02-0.419-0.034-0.838-0.039-1.257
		c-0.007-0.609-0.015-1.22-0.004-1.83c0.023-1.362,0.063-2.725,0.087-4.088c0.011-0.659,0-1.318,0-1.978
		c0-1.097-0.001-2.194,0.004-3.291c0.002-0.414,0.023-0.828,0.03-1.242c0.015-0.863,0.011-1.726,0.044-2.588
		C24.033,6.502,23.857,6.281,23.435,6.287z M21.77,7.862c0.016-0.138,0.024-0.282,0.07-0.411c0.069-0.199,0.301-0.233,0.402-0.054
		c0.12,0.212,0.245,0.265,0.472,0.153c0.176-0.086,0.288-0.015,0.318,0.179c0.023,0.157,0.023,0.322,0.007,0.48
		C23.023,8.36,22.93,8.465,22.769,8.49c-0.104,0.016-0.208,0.028-0.312,0.042c-0.001-0.004-0.001-0.008-0.001-0.013
		c-0.05,0-0.099,0.003-0.147,0C21.855,8.482,21.719,8.317,21.77,7.862z M21.706,9.315c0.031-0.219,0.173-0.328,0.394-0.335
		c0.168-0.005,0.337-0.004,0.505,0.005c0.305,0.018,0.424,0.126,0.473,0.432c0.021,0.138,0.021,0.279,0.029,0.419
		c-0.01,0.708-0.102,0.799-0.812,0.795c-0.487-0.002-0.632-0.14-0.632-0.625C21.663,9.776,21.673,9.543,21.706,9.315z
		 M21.618,11.855c0.001,0,0.002,0,0.003,0c0-0.175-0.007-0.351,0.001-0.526c0.013-0.292,0.133-0.405,0.419-0.406
		c0.203,0,0.408-0.005,0.61,0.011c0.358,0.027,0.527,0.166,0.558,0.511c0.027,0.313,0.022,0.632-0.005,0.945
		c-0.024,0.273-0.143,0.373-0.412,0.389c-0.266,0.015-0.533,0.015-0.8,0c-0.246-0.013-0.362-0.145-0.372-0.397
		C21.612,12.207,21.618,12.031,21.618,11.855z M21.406,11.235c0.01,0.335,0.003,0.671,0.003,1.007c0.019,0,0.037,0,0.056,0.001
		c-0.011,0.104-0.014,0.21-0.034,0.312c-0.03,0.155-0.138,0.269-0.289,0.259c-0.274-0.018-0.589,0.207-0.813-0.069
		c-0.083-0.102-0.053-0.306-0.052-0.464c0.002-0.332,0.043-0.663-0.083-0.986c-0.073-0.188-0.012-0.309,0.188-0.338
		c0.239-0.035,0.485-0.036,0.729-0.037C21.312,10.919,21.401,11.054,21.406,11.235z M19.683,7.427
		c0.013-0.081,0.139-0.18,0.23-0.207c0.166-0.047,0.346-0.047,0.52-0.066c0.001,0.005,0.002,0.011,0.002,0.017
		c0.028,0,0.057,0,0.085,0c0.643,0.001,0.953,0.524,0.642,1.103c-0.05,0.092-0.176,0.194-0.273,0.201
		c-0.326,0.025-0.658,0.03-0.983-0.003c-0.097-0.01-0.245-0.16-0.255-0.257C19.623,7.955,19.643,7.686,19.683,7.427z M19.627,9.202
		c0.022-0.156,0.117-0.271,0.277-0.27c0.341,0.002,0.683,0.015,1.021,0.05C21.091,9,21.203,9.127,21.207,9.303
		c0.007,0.342,0.008,0.685-0.007,1.026c-0.007,0.155-0.109,0.262-0.273,0.27c-0.279,0.012-0.562,0.038-0.838,0.012
		c-0.323-0.03-0.433-0.16-0.48-0.487c-0.02-0.138-0.015-0.28-0.024-0.481C19.594,9.535,19.604,9.367,19.627,9.202z M16.113,10.242
		c-0.13-0.044-0.287-0.096-0.228-0.262c0.035-0.096,0.174-0.154,0.249-0.216c0.228,0.06,0.401,0.091,0.562,0.154
		c0.074,0.029,0.153,0.112,0.176,0.187c0.023,0.083,0.015,0.208-0.036,0.269c-0.039,0.048-0.169,0.05-0.248,0.031
		C16.426,10.365,16.271,10.296,16.113,10.242z M16.385,10.751c-0.058,0.056-0.115,0.112-0.161,0.157
		c-0.226-0.051-0.41-0.087-0.592-0.138c-0.043-0.012-0.072-0.072-0.107-0.11c0.044-0.025,0.087-0.071,0.132-0.073
		c0.182-0.007,0.365-0.014,0.544,0.009C16.268,10.605,16.324,10.697,16.385,10.751z M16.715,9.655
		c-0.347-0.032-0.692-0.104-1.029-0.194C15.534,9.42,15.482,9.257,15.5,9.095c0.019-0.18,0.147-0.255,0.303-0.271
		c0.166-0.017,0.336-0.004,0.505-0.004c0-0.002,0-0.004,0-0.007c0.134,0,0.267-0.003,0.4,0.001c0.251,0.008,0.352,0.099,0.358,0.315
		C17.077,9.445,16.945,9.676,16.715,9.655z M17.469,11.373c-0.083-0.056-0.149-0.136-0.241-0.222
		c0.276-0.162,0.55-0.137,0.752,0.068c0.348,0.353,0.683,0.717,1.021,1.078c0.033,0.035,0.068,0.077,0.079,0.122
		c0.012,0.049,0.018,0.132-0.01,0.152c-0.041,0.03-0.117,0.033-0.169,0.018c-0.05-0.014-0.098-0.059-0.13-0.103
		C18.42,12.018,17.946,11.694,17.469,11.373z M18.541,17.896c-0.244,0.316-0.492,0.634-0.878,0.784
		c-0.038,0.016-0.079,0.021-0.122,0.021c-0.071,0.001-0.147-0.011-0.22-0.01c-0.001,0.001-0.002,0.002-0.003,0.003l0,0l0,0
		c-0.001,0-0.002-0.001-0.003-0.001c-0.211,0.426-0.656,0.557-1.073,0.292c0.331-0.233,0.662-0.4,1.073-0.292
		c0-0.001,0-0.001,0.001-0.002c0.001,0,0.003,0,0.005,0c0.04-0.044,0.078-0.092,0.117-0.138c0.051-0.06,0.103-0.116,0.164-0.16
		c0.255-0.185,0.524-0.349,0.789-0.519c0.038-0.024,0.085-0.033,0.137-0.052C18.535,17.859,18.549,17.887,18.541,17.896z
		 M18.759,11.272c0.076,0.015,0.142,0.082,0.269,0.164c-0.119,0.082-0.205,0.169-0.232,0.154c-0.074-0.042-0.13-0.123-0.173-0.2
		C18.615,11.377,18.72,11.265,18.759,11.272z M18.66,10.03c-0.191-0.126-0.397-0.232-0.589-0.359
		c-0.109-0.072-0.226-0.152-0.299-0.256c-0.181-0.254-0.049-0.5,0.265-0.502c0.238-0.001,0.478,0.014,0.715,0.04
		c0.331,0.037,0.424,0.171,0.436,0.579c-0.017,0.111-0.026,0.224-0.053,0.332C19.078,10.095,18.862,10.163,18.66,10.03z
		 M17.588,7.533c0.015-0.185,0.142-0.287,0.322-0.306c0.146-0.016,0.294-0.015,0.44-0.022c0,0.002,0,0.004,0.001,0.006
		c0.035,0,0.069,0,0.104,0c0.216,0.002,0.478-0.046,0.593,0.173c0.146,0.282,0.115,0.604,0.01,0.901
		c-0.026,0.074-0.145,0.154-0.228,0.163c-0.312,0.032-0.626,0.044-0.939,0.047c-0.182,0.001-0.29-0.125-0.305-0.292
		C17.568,7.981,17.571,7.755,17.588,7.533z M15.289,7.582c0.012-0.345,0.12-0.488,0.455-0.518c0.341-0.03,0.688-0.032,1.028-0.004
		c0.335,0.027,0.452,0.162,0.479,0.502c0.021,0.256,0.023,0.518,0,0.774c-0.023,0.246-0.115,0.31-0.362,0.314
		c-0.196,0.003-0.393,0-0.589,0c0,0,0,0,0,0.001c-0.196,0-0.394,0.007-0.59-0.001c-0.293-0.013-0.419-0.15-0.419-0.438
		C15.292,8.002,15.281,7.792,15.289,7.582z M15.541,12.235c0.019-0.009,0.008-0.113-0.012-0.165
		c-0.064-0.169-0.013-0.256,0.161-0.213c0.138,0.035,0.259,0.132,0.394,0.187c0.099,0.04,0.216,0.094,0.31,0.073
		c0.428-0.096,0.59,0.021,0.591,0.461c0.001,0.318-0.064,0.396-0.383,0.464c-0.038,0.008-0.092,0.027-0.104,0.056
		c-0.102,0.249-0.314,0.229-0.499,0.174c-0.293-0.088-0.595-0.179-0.766-0.479c-0.027-0.049-0.128-0.07-0.198-0.08
		c-0.108-0.015-0.22-0.043-0.183-0.167c0.018-0.06,0.155-0.136,0.218-0.121C15.28,12.474,15.39,12.307,15.541,12.235z
		 M14.488,10.119c-0.21,0.092-0.426,0.179-0.647,0.236c-0.064,0.017-0.214-0.062-0.222-0.113c-0.012-0.08,0.04-0.217,0.105-0.252
		c0.168-0.09,0.36-0.138,0.542-0.203c0.004,0.011,0.008,0.022,0.013,0.034c0.049,0.002,0.104-0.009,0.145,0.011
		c0.063,0.031,0.141,0.073,0.163,0.129C14.601,9.998,14.538,10.098,14.488,10.119z M14.722,10.502
		c0.101,0.085,0.22,0.148,0.213,0.188c-0.03,0.168-0.184,0.202-0.325,0.193c-0.069-0.004-0.134-0.081-0.202-0.125
		C14.505,10.679,14.603,10.6,14.722,10.502z M14.74,11.645c0.198,0.011,0.307,0.12,0.303,0.303
		c-0.004,0.181-0.092,0.258-0.285,0.252c-0.231-0.007-0.396-0.118-0.395-0.266C14.364,11.772,14.544,11.634,14.74,11.645z
		 M13.286,7.434c0.013-0.204,0.143-0.354,0.353-0.354c0.405,0,0.812,0.013,1.214,0.052c0.198,0.02,0.257,0.209,0.267,0.384
		c0.013,0.252,0.01,0.506,0.002,0.759c-0.006,0.175-0.09,0.293-0.282,0.304c-0.238,0.013-0.477,0.027-0.714,0.042
		c0-0.001,0-0.003-0.001-0.005c-0.162,0-0.324-0.007-0.485,0.001c-0.216,0.011-0.346-0.097-0.358-0.299
		C13.263,8.024,13.267,7.728,13.286,7.434z M13.651,8.777c0.287,0.011,0.574,0.025,0.86,0.041c0.07,0.004,0.139,0.018,0.207,0.035
		c0.16,0.039,0.289,0.141,0.262,0.304c-0.02,0.12-0.113,0.25-0.212,0.328c-0.085,0.067-0.223,0.069-0.339,0.096
		c-0.157,0.036-0.323,0.044-0.47,0.104c-0.482,0.196-0.706-0.045-0.7-0.519C13.257,8.883,13.374,8.766,13.651,8.777z M11.19,7.421
		c0.03-0.242,0.17-0.358,0.415-0.368c0.336-0.013,0.674-0.011,1.01,0.001c0.242,0.009,0.383,0.131,0.406,0.371
		c0.028,0.285,0.03,0.573,0.024,0.86c-0.003,0.18-0.117,0.279-0.302,0.28c-0.203,0.001-0.407,0-0.61,0c0,0,0,0.001,0,0.001
		c-0.189,0-0.379,0.004-0.568-0.001c-0.234-0.007-0.383-0.12-0.398-0.35C11.15,7.952,11.157,7.683,11.19,7.421z M13.019,9.072
		c-0.023,0.286-0.043,0.573-0.102,0.852c-0.022,0.107-0.131,0.21-0.225,0.285c-0.13,0.103-0.292,0.166-0.424,0.267
		c-0.22,0.167-0.467,0.186-0.721,0.153c-0.182-0.024-0.296-0.163-0.305-0.332C11.222,9.9,11.227,9.501,11.23,9.103
		c0.002-0.187,0.128-0.278,0.297-0.297c0.222-0.025,0.447-0.031,0.651-0.044c0.216,0.013,0.412,0.02,0.607,0.039
		C12.942,8.816,13.031,8.917,13.019,9.072z M10.784,9.816c-0.004,0-0.009,0-0.014,0c0,0.105,0.008,0.211-0.001,0.316
		c-0.029,0.344-0.141,0.469-0.48,0.492c-0.193,0.013-0.394-0.005-0.585-0.04c-0.209-0.038-0.288-0.216-0.319-0.402
		c-0.039-0.228-0.062-0.458-0.08-0.689C9.28,9.183,9.407,9.01,9.712,8.97c0.2-0.026,0.407-0.031,0.607-0.012
		c0.304,0.03,0.385,0.119,0.429,0.418C10.77,9.522,10.773,9.669,10.784,9.816z M9.975,7.171c0.644-0.003,0.767,0.12,0.759,0.759
		c-0.005,0.408-0.101,0.533-0.504,0.576c-0.213,0.023-0.433-0.005-0.648-0.021C9.42,8.473,9.333,8.364,9.299,8.215
		C9.276,8.12,9.259,8.021,9.256,7.924C9.232,7.282,9.335,7.175,9.975,7.171z M8.282,7.191C8.447,7.228,8.573,7.33,8.585,7.5
		c0.017,0.235,0.002,0.473-0.002,0.708c0,0.033-0.017,0.071-0.038,0.097C8.319,8.588,8.006,8.533,7.71,8.5
		C7.484,8.475,7.383,8.334,7.359,8.072C7.352,7.995,7.358,7.917,7.358,7.84C7.309,7.144,7.693,7.059,8.282,7.191z M7.369,9.333
		c0.011-0.224,0.139-0.368,0.373-0.375C7.916,8.952,8.091,8.96,8.264,8.979C8.454,9,8.567,9.116,8.589,9.309
		c0.019,0.167,0.032,0.334,0.048,0.5c-0.005,0-0.009,0.001-0.014,0.001c0,0.021-0.001,0.042,0,0.063
		c0.041,0.723-0.23,0.866-1.04,0.701c-0.092-0.019-0.202-0.202-0.213-0.317C7.343,9.951,7.354,9.641,7.369,9.333z M8.437,22.613
		c-0.035,0.099-0.157,0.205-0.261,0.236c-0.427,0.126-0.979-0.354-0.936-0.796c0.031-0.321,0.169-0.46,0.495-0.488
		c0.062-0.006,0.126-0.001,0.189-0.001c0.416-0.011,0.561,0.118,0.572,0.533C8.5,22.271,8.492,22.453,8.437,22.613z M8.572,20.875
		c-0.059,0.261-0.28,0.377-0.546,0.331c-0.158-0.027-0.318-0.05-0.478-0.062c-0.172-0.014-0.295-0.099-0.306-0.263
		c-0.022-0.355-0.018-0.712-0.021-1.067c0-0.04,0.021-0.081,0.039-0.119c0.146-0.312,1.002-0.467,1.235-0.212
		c0.073,0.079,0.104,0.211,0.121,0.324c0.021,0.137,0.005,0.279,0.005,0.42c0.007,0.001,0.014,0.002,0.021,0.002
		C8.621,20.445,8.62,20.665,8.572,20.875z M8.672,18.221c-0.002,0-0.003,0-0.005,0c0,0.225,0.001,0.449,0,0.674
		c-0.001,0.159-0.085,0.259-0.242,0.261c-0.273,0.003-0.548,0.006-0.818-0.024c-0.247-0.028-0.375-0.184-0.381-0.427
		c-0.008-0.335-0.012-0.671,0.003-1.006c0.015-0.343,0.16-0.475,0.502-0.484c0.196-0.007,0.393-0.006,0.589,0.003
		c0.253,0.012,0.349,0.118,0.352,0.373C8.674,17.8,8.672,18.011,8.672,18.221z M8.501,17.041c-0.308,0.006-0.617-0.003-0.925-0.017
		c-0.181-0.007-0.302-0.128-0.306-0.293c-0.012-0.46-0.006-0.922,0.016-1.382c0.007-0.156,0.148-0.233,0.303-0.241
		c0.28-0.015,0.562-0.032,0.841-0.025c0.179,0.005,0.278,0.12,0.279,0.306c0.001,0.239,0,0.478,0,0.717h0
		c0,0.231-0.001,0.463,0,0.695C8.712,16.944,8.638,17.038,8.501,17.041z M8.717,14.669c-0.014,0.164-0.117,0.234-0.271,0.234
		c-0.288,0-0.577-0.005-0.865-0.006c-0.177,0-0.298-0.1-0.304-0.261c-0.018-0.433-0.021-0.867-0.001-1.3
		c0.008-0.193,0.175-0.287,0.357-0.296c0.26-0.013,0.521-0.013,0.78-0.001c0.17,0.008,0.292,0.093,0.304,0.286
		c0.014,0.224,0.032,0.448,0.049,0.677C8.751,14.222,8.736,14.446,8.717,14.669z M8.794,12.543c-0.007,0.252-0.084,0.33-0.33,0.332
		c-0.26,0.002-0.52,0.001-0.78-0.003c-0.261-0.005-0.4-0.097-0.41-0.354c-0.015-0.411,0.001-0.825,0.039-1.234
		c0.021-0.231,0.189-0.348,0.426-0.358c0.197-0.008,0.394-0.007,0.59-0.003c0.229,0.005,0.377,0.109,0.417,0.339
		c0.044,0.254,0.047,0.515,0.068,0.773c-0.006,0-0.013,0.001-0.019,0.001C8.795,12.206,8.799,12.375,8.794,12.543z M10.563,22.596
		c-0.028,0.254-0.212,0.377-0.48,0.364c-0.252-0.013-0.373-0.128-0.402-0.396c-0.017-0.148-0.022-0.298-0.033-0.447
		c-0.035-0.002-0.07-0.004-0.105-0.005c-0.024,0.124-0.055,0.248-0.071,0.374c-0.023,0.169-0.026,0.352-0.25,0.38
		c-0.169,0.021-0.331-0.109-0.343-0.328c-0.014-0.246,0.009-0.5,0.059-0.743c0.046-0.224,0.252-0.294,0.456-0.308
		c0.252-0.016,0.506-0.018,0.758-0.005c0.278,0.015,0.397,0.126,0.418,0.403C10.587,22.12,10.59,22.361,10.563,22.596z
		 M10.719,19.834c-0.027,0.301-0.051,0.602-0.067,0.902c-0.022,0.423-0.154,0.554-0.569,0.538c-0.28-0.01-0.562-0.013-0.84-0.043
		c-0.217-0.023-0.371-0.153-0.377-0.385c-0.011-0.356-0.007-0.714-0.001-1.07c0.003-0.207,0.133-0.33,0.322-0.363
		c0.22-0.038,0.445-0.045,0.668-0.066c0,0.008,0.001,0.015,0.001,0.022c0.162,0,0.324-0.01,0.485,0.002
		C10.636,19.394,10.746,19.54,10.719,19.834z M10.062,19.119c-0.07,0-0.141,0-0.211,0c0-0.001,0-0.002,0-0.003
		c-0.176,0-0.352,0.006-0.527-0.002c-0.381-0.017-0.526-0.191-0.493-0.567c0.02-0.224,0.035-0.447,0.039-0.672
		C8.878,17.43,9,17.277,9.438,17.267c0.321-0.008,0.646,0.021,0.966,0.058c0.26,0.03,0.334,0.149,0.316,0.404
		c-0.008,0.11,0.002,0.223,0.005,0.334c0.003,0.127,0.012,0.253,0.011,0.38C10.728,19.048,10.655,19.12,10.062,19.119z
		 M10.778,16.697c-0.022,0.268-0.105,0.349-0.37,0.354c-0.133,0.003-0.267,0-0.401,0c0,0.004-0.001,0.008-0.001,0.012
		c-0.217-0.019-0.436-0.023-0.649-0.058c-0.239-0.037-0.333-0.219-0.264-0.444c0.095-0.311,0.153-0.625,0.058-0.95
		c-0.054-0.183,0.011-0.362,0.192-0.383c0.415-0.047,0.835-0.05,1.253-0.052c0.048,0,0.129,0.113,0.139,0.182
		c0.04,0.277,0.066,0.557,0.078,0.836C10.821,16.361,10.792,16.529,10.778,16.697z M10.852,14.57
		c-0.005,0.19-0.113,0.324-0.318,0.322c-0.329-0.002-0.661,0.002-0.987-0.037c-0.366-0.044-0.418-0.166-0.518-0.522
		c-0.09-0.322-0.069-0.624,0.01-0.93c0.031-0.121,0.105-0.238,0.185-0.336c0.069-0.084,0.099-0.123,0.009-0.222
		c-0.092-0.102-0.186-0.24-0.197-0.369c-0.029-0.317-0.047-0.644-0.004-0.958c0.049-0.361,0.301-0.552,0.668-0.589
		c0.202-0.021,0.405-0.036,0.607-0.046c0.318-0.017,0.486,0.116,0.508,0.428c0.027,0.385,0.04,0.771,0.042,1.157
		c0.001,0.323-0.147,0.479-0.472,0.417c-0.184-0.035-0.378-0.013-0.568-0.008c-0.064,0.001-0.127,0.028-0.191,0.043
		c0,0.026,0,0.051,0,0.077c0.07,0.012,0.141,0.034,0.212,0.035c0.21,0.003,0.421-0.002,0.632-0.003
		c0.242-0.002,0.372,0.087,0.381,0.319C10.866,13.755,10.862,14.163,10.852,14.57z M12.681,22.559
		c-0.012,0.182-0.129,0.304-0.293,0.306c-0.425,0.005-0.851-0.008-1.273-0.049c-0.079-0.008-0.185-0.172-0.202-0.276
		c-0.03-0.19-0.018-0.392,0.002-0.586c0.025-0.229,0.15-0.343,0.385-0.377c0.096-0.015,0.195-0.013,0.293-0.016
		c0.091-0.002,0.183,0,0.273,0c0,0.001,0,0.002,0,0.003c0.168,0,0.337-0.007,0.505,0.001c0.203,0.01,0.336,0.112,0.338,0.324
		C12.712,22.112,12.696,22.336,12.681,22.559z M12.555,21.144c-0.21,0.043-0.43,0.04-0.624,0.055
		c-0.233-0.017-0.443-0.023-0.651-0.049c-0.17-0.021-0.292-0.122-0.302-0.3c-0.013-0.229-0.024-0.461,0.003-0.688
		c0.026-0.218,0.2-0.272,0.388-0.151c0.147,0.095,0.3,0.18,0.446,0.276c0.199,0.131,0.409,0.207,0.652,0.175
		c0.218-0.028,0.261,0.133,0.277,0.29C12.759,20.913,12.76,21.103,12.555,21.144z M12.551,20.06c-0.08-0.006-0.147-0.158-0.22-0.245
		c0.058-0.164,0.078-0.315,0.245-0.286c0.072,0.014,0.164,0.146,0.172,0.231C12.76,19.891,12.734,20.075,12.551,20.06z
		 M14.947,22.554c-0.015,0.268-0.159,0.421-0.425,0.435c-0.33,0.017-0.661,0.02-0.991,0.002c-0.33-0.019-0.47-0.184-0.482-0.517
		c-0.007-0.196-0.035-0.395-0.01-0.587c0.042-0.326,0.149-0.405,0.475-0.411c0.19-0.004,0.38-0.001,0.57-0.001v-0.001
		c0.204,0,0.408-0.001,0.611,0c0.171,0.001,0.265,0.086,0.265,0.258C14.959,22.006,14.962,22.28,14.947,22.554z M15.051,19.801
		C15.026,20.13,15.015,20.46,15,20.789c-0.016,0.363-0.082,0.419-0.434,0.437c-0.336,0.017-0.67,0.072-1.006,0.085
		c-0.391,0.014-0.474-0.082-0.471-0.465c0.003-0.303,0.007-0.604,0.002-0.907c-0.004-0.273,0.006-0.538,0.234-0.684
		c-0.096-0.244-0.183-0.464-0.293-0.746c-0.029,0.135-0.051,0.216-0.063,0.298c-0.04,0.273-0.124,0.353-0.4,0.354
		c-0.373,0.002-0.746,0.002-1.118-0.001c-0.445-0.004-0.549-0.106-0.553-0.546c-0.003-0.316-0.002-0.633,0-0.949
		c0.002-0.31,0.118-0.427,0.43-0.451c0.073-0.006,0.145-0.028,0.217-0.043c0.003-0.025,0.005-0.052,0.008-0.077
		c-0.09-0.021-0.18-0.046-0.272-0.059c-0.274-0.04-0.313-0.073-0.302-0.348c0.023-0.564,0.072-1.129,0.081-1.694
		c0.008-0.526-0.022-1.052-0.035-1.579c-0.005-0.198,0.066-0.341,0.274-0.393c0.052-0.013,0.098-0.048,0.152-0.076
		c-0.015-0.028-0.02-0.057-0.033-0.061c-0.327-0.09-0.382-0.327-0.354-0.623c0.019-0.188-0.002-0.38,0.017-0.569
		c0.022-0.222,0.113-0.375,0.363-0.455c0.299-0.096,0.573-0.281,0.905-0.227c0.114,0.019,0.227,0.078,0.326,0.143
		c0.185,0.122,0.348,0.025,0.513-0.034c0.177-0.063,0.348-0.146,0.522-0.216c0.032-0.013,0.074-0.026,0.103-0.015
		c0.085,0.034,0.165,0.08,0.247,0.121c-0.046,0.073-0.078,0.167-0.144,0.214c-0.101,0.071-0.221,0.13-0.342,0.159
		c-0.444,0.108-0.737,0.42-1.03,0.734c-0.249,0.267-0.494,0.537-0.738,0.807c-0.027,0.03-0.049,0.07-0.057,0.109
		c-0.116,0.598-0.231,1.196-0.343,1.795c-0.013,0.067-0.02,0.14-0.009,0.208c0.108,0.686,0.338,1.34,0.65,1.951
		c0.17,0.334,0.513,0.576,0.73,0.892c0.26,0.377,0.661,0.489,1.039,0.652c0.244,0.104,0.503,0.179,0.745,0.288
		c0.104,0.047,0.183,0.149,0.273,0.227c-0.109,0.038-0.216,0.099-0.328,0.109c-0.202,0.019-0.408,0.003-0.611,0.011
		c-0.092,0.003-0.183,0.028-0.275,0.044c0,0.02,0,0.039,0,0.059c0.114,0.018,0.227,0.046,0.341,0.05
		c0.218,0.008,0.436-0.001,0.654,0.001C14.922,19.321,15.074,19.499,15.051,19.801z M17.148,22.458
		c-0.017,0.345-0.158,0.498-0.502,0.53c-0.167,0.017-0.337,0.003-0.506,0.003c0,0.007,0,0.013,0,0.019
		c-0.203-0.012-0.408-0.009-0.608-0.038c-0.236-0.034-0.327-0.154-0.33-0.387c-0.003-0.238,0.006-0.478-0.005-0.716
		c-0.009-0.213,0.091-0.323,0.292-0.329c0.202-0.006,0.405,0.015,0.608,0.018c0.231,0.003,0.464-0.003,0.695,0.001
		c0.23,0.004,0.348,0.118,0.356,0.352C17.155,22.093,17.157,22.275,17.148,22.458z M16.923,21.315c-0.111,0.054-0.273,0.001-0.413,0
		c-0.316-0.003-0.633,0.001-0.949-0.007c-0.289-0.006-0.396-0.109-0.396-0.399c0-0.238,0.031-0.477,0.035-0.715
		c0.001-0.117-0.018-0.237-0.045-0.353c-0.078-0.319,0.115-0.569,0.441-0.553c0.427,0.022,0.854,0.049,1.281,0.076
		c0.211,0.014,0.318,0.177,0.303,0.42c-0.018,0.28-0.022,0.562-0.026,0.842c-0.001,0.063,0.025,0.128,0.039,0.191
		c0.029,0.002,0.06,0.005,0.09,0.007c0.022-0.096,0.063-0.19,0.066-0.286c0.009-0.295,0.001-0.591,0.003-0.886
		c0.002-0.313,0.075-0.382,0.388-0.378c0.296,0.004,0.591,0.001,0.886,0.009c0.41,0.01,0.623,0.219,0.632,0.629
		c0.008,0.323,0.008,0.647-0.001,0.971c-0.009,0.295-0.142,0.424-0.434,0.429c-0.373,0.006-0.745,0.002-1.118,0.001
		c-0.035,0-0.081,0.01-0.104-0.008C17.369,21.12,17.158,21.201,16.923,21.315z M19.273,22.63c-0.024,0.237-0.173,0.361-0.413,0.367
		c-0.337,0.009-0.675,0.012-1.011-0.007c-0.351-0.019-0.495-0.16-0.527-0.507c-0.021-0.223-0.018-0.45-0.004-0.674
		c0.014-0.229,0.14-0.332,0.372-0.335c0.189-0.003,0.38-0.001,0.569-0.001c0,0.001,0,0.002,0,0.003c0.21,0,0.422-0.008,0.632,0.002
		c0.242,0.011,0.378,0.118,0.396,0.354C19.306,22.098,19.301,22.366,19.273,22.63z M21.468,22.635
		c-0.008,0.185-0.127,0.306-0.306,0.322c-0.3,0.027-0.602,0.03-0.902,0.042c-0.098,0.004-0.196,0.004-0.295,0.002
		c-0.299-0.006-0.478-0.162-0.496-0.459c-0.014-0.224-0.012-0.449,0.004-0.673c0.018-0.268,0.153-0.383,0.425-0.392
		c0.091-0.003,0.183-0.001,0.273-0.001c0.085,0,0.169,0,0.253,0c0-0.004,0.001-0.008,0.001-0.011
		c0.23,0.012,0.463,0.015,0.692,0.039c0.205,0.021,0.341,0.144,0.352,0.354C21.481,22.117,21.479,22.377,21.468,22.635z
		 M19.838,17.993c-0.022-0.396,0.123-0.552,0.519-0.573c0.159-0.009,0.318-0.046,0.478-0.07c0.36-0.054,0.515,0.091,0.491,0.45
		c-0.018,0.28-0.028,0.561-0.038,0.841c-0.008,0.24-0.062,0.303-0.294,0.314c-0.238,0.012-0.478,0.034-0.715,0.027
		c-0.339-0.01-0.424-0.168-0.265-0.464c0.046-0.086,0.093-0.171,0.152-0.279C19.897,18.284,19.854,18.249,19.838,17.993z
		 M19.862,19.293c0.432-0.031,0.866-0.022,1.3-0.021c0.146,0,0.236,0.092,0.251,0.236c0.025,0.25,0.039,0.502,0.059,0.753
		c-0.01,0-0.019,0.001-0.028,0.001c0,0.204,0.012,0.408-0.003,0.61c-0.015,0.212-0.122,0.364-0.354,0.37
		c-0.413,0.011-0.827,0.028-1.24,0.009c-0.267-0.013-0.354-0.104-0.362-0.37c-0.013-0.405,0-0.813,0.026-1.218
		C19.523,19.464,19.674,19.307,19.862,19.293z M21.025,17.04c-0.404-0.015-0.809-0.072-1.209-0.141
		c-0.195-0.033-0.298-0.193-0.312-0.4c-0.008-0.121-0.032-0.241-0.049-0.361c-0.205,0.23-0.325,0.247-0.543,0.069
		c-0.249-0.202-0.338-0.72-0.163-1.03c0.068-0.122,0.079-0.22,0.019-0.352c-0.203-0.445-0.08-1.211,0.313-1.49
		c0.265-0.187,0.622-0.275,0.95-0.327c0.349-0.055,0.712-0.019,1.069-0.015c0.22,0.002,0.343,0.114,0.349,0.336
		c0.01,0.429,0.011,0.857,0.001,1.286c-0.004,0.188-0.111,0.283-0.314,0.289c-0.406,0.012-0.812,0.05-1.218,0.061
		c-0.113,0.003-0.228-0.058-0.344-0.074c-0.061-0.008-0.143,0-0.184,0.036c-0.03,0.027-0.033,0.143-0.007,0.164
		c0.045,0.033,0.124,0.031,0.188,0.028c0.162-0.008,0.325-0.036,0.487-0.036c0.33-0.002,0.659,0.015,0.989,0.015
		c0.327,0.001,0.398,0.067,0.406,0.387c0.011,0.357,0.038,0.715,0.043,1.072C21.503,16.926,21.396,17.054,21.025,17.04z
		 M21.618,13.925c0-0.19-0.003-0.379,0.001-0.569c0.004-0.206,0.106-0.343,0.315-0.348c0.302-0.008,0.604-0.001,0.904,0.018
		c0.182,0.012,0.304,0.124,0.308,0.314c0.008,0.399,0.02,0.798-0.001,1.196c-0.013,0.233-0.16,0.349-0.394,0.358
		c-0.245,0.01-0.492,0.01-0.737,0c-0.258-0.011-0.385-0.143-0.395-0.399C21.612,14.305,21.618,14.115,21.618,13.925z M21.664,19.651
		c0.012-0.257,0.109-0.364,0.361-0.365c0.301,0,0.603,0.019,0.902,0.044c0.202,0.017,0.294,0.159,0.297,0.347
		c0.006,0.386,0.007,0.771-0.008,1.157c-0.009,0.251-0.155,0.386-0.402,0.393c-0.273,0.007-0.547,0.002-0.82,0.002
		c-0.183-0.001-0.293-0.088-0.306-0.274c-0.017-0.245-0.026-0.489-0.04-0.733c0.005-0.001,0.009-0.001,0.014-0.001
		C21.662,20.03,21.655,19.841,21.664,19.651z M23.223,22.245c-0.008,0.176-0.06,0.307-0.265,0.349
		c-0.079,0.016-0.172,0.107-0.203,0.186c-0.065,0.167-0.177,0.225-0.341,0.222c-0.091-0.001-0.183,0.001-0.274,0.001
		c-0.324-0.003-0.489-0.179-0.475-0.507c0.01-0.217,0.021-0.434,0.027-0.65c0.007-0.26,0.076-0.356,0.34-0.392
		c0.158-0.021,0.322-0.004,0.483-0.004c0-0.006,0-0.011,0-0.017c0.099,0,0.197-0.001,0.295,0.001
		c0.29,0.005,0.407,0.118,0.417,0.411C23.231,21.978,23.228,22.111,23.223,22.245z M23.228,18.69
		c-0.008,0.26-0.115,0.374-0.374,0.383c-0.302,0.01-0.604,0.011-0.905,0.005c-0.22-0.004-0.32-0.097-0.319-0.356
		c0.002-0.398,0.038-0.797,0.06-1.195c0.011-0.2,0.139-0.292,0.316-0.301c0.294-0.015,0.59-0.021,0.883-0.006
		c0.229,0.012,0.332,0.144,0.341,0.376c0.003,0.091,0.001,0.183,0.001,0.273c0,0.092,0,0.183,0,0.273c-0.001,0-0.001,0-0.001,0
		C23.229,18.325,23.232,18.508,23.228,18.69z M23.223,16.723c-0.009,0.183-0.151,0.293-0.326,0.303
		c-0.314,0.017-0.63,0.017-0.944,0.006c-0.204-0.007-0.292-0.145-0.292-0.341c-0.001-0.203,0-0.407,0-0.61
		c-0.004,0-0.008-0.001-0.012-0.001c0.012-0.23,0.02-0.462,0.035-0.693c0.016-0.213,0.154-0.312,0.351-0.321
		c0.26-0.012,0.521-0.013,0.779,0c0.276,0.015,0.407,0.117,0.422,0.399C23.258,15.882,23.243,16.304,23.223,16.723z"/>
	<path d="M2.125,14.462c0.001-1.018,0.045-2.036,0.08-3.054c0.006-0.198,0.056-0.396,0.083-0.593
		c0.008-0.057,0.007-0.114,0.01-0.171c-0.017-0.008-0.034-0.017-0.051-0.024c-0.042,0.037-0.094,0.068-0.127,0.113
		c-0.244,0.327-0.287,0.341-0.664,0.194c-0.053-0.02-0.105-0.039-0.158-0.058c-0.152-0.055-0.279-0.003-0.335,0.135
		c-0.24,0.591-0.509,1.175-0.689,1.785c-0.257,0.873-0.289,1.778-0.269,2.689c0.017,0.758,0.087,1.499,0.358,2.21
		c0.19,0.498,0.388,0.993,0.599,1.482c0.113,0.264,0.247,0.312,0.526,0.246c0.164-0.039,0.326-0.092,0.491-0.119
		c0.229-0.039,0.357-0.171,0.428-0.384c0.173-0.513,0.264-1.022,0.098-1.563C2.217,16.411,2.125,15.438,2.125,14.462z M1.289,14.482
		c-0.022-0.066-0.061-0.144-0.044-0.202c0.08-0.282,0.173-0.561,0.271-0.837c0.014-0.039,0.09-0.086,0.126-0.079
		c0.039,0.008,0.087,0.075,0.093,0.121c0.031,0.244,0.049,0.488,0.065,0.669c-0.016,0.262-0.014,0.46-0.046,0.652
		c-0.012,0.067-0.105,0.165-0.166,0.167c-0.057,0.002-0.135-0.092-0.173-0.16C1.359,14.71,1.326,14.594,1.289,14.482z M1.642,17.019
		c-0.151,0.013-0.212-0.116-0.188-0.241c0.017-0.084,0.107-0.153,0.165-0.229c0.071,0.077,0.143,0.153,0.249,0.267
		C1.766,16.911,1.708,17.014,1.642,17.019z"/>
	<path d="M14.748,27.379c-0.016-0.137-0.049-0.275-0.037-0.41c0.021-0.226-0.007-0.283-0.233-0.289
		c-0.309-0.009-0.62-0.022-0.927-0.001c-0.166,0.013-0.326,0.094-0.489,0.145c-0.105,0.033-0.208,0.081-0.315,0.098
		c-0.193,0.03-0.394,0.024-0.584,0.064c-0.208,0.044-0.33,0-0.381-0.233c-0.02,0.043-0.053,0.085-0.058,0.129
		c-0.023,0.257-0.051,0.515-0.056,0.771c-0.008,0.429,0.134,0.571,0.562,0.573c0.653,0.004,1.307,0.003,1.96,0.001
		c0.569-0.001,0.717-0.191,0.587-0.747C14.771,27.445,14.752,27.413,14.748,27.379z M14.252,27.556
		c-0.044,0.002-0.087,0.004-0.131,0.005c-0.306,0.01-0.613,0.002-0.919,0.003c-0.365,0-0.729,0.002-1.093-0.001
		c-0.109-0.001-0.241-0.025-0.209-0.165c0.016-0.071,0.139-0.169,0.215-0.17c0.715-0.011,1.43-0.009,2.145,0.006
		c0.076,0.002,0.149,0.107,0.223,0.165C14.406,27.453,14.332,27.552,14.252,27.556z"/>
	<path d="M13.348,3.494c0.54-0.008,1.08-0.027,1.62-0.037c0.281-0.005,0.562,0.001,0.843-0.001c0.32-0.003,0.401-0.085,0.402-0.399
		c0.001-0.239,0-0.478,0-0.716c-0.001-0.407-0.144-0.556-0.557-0.565c-0.323-0.007-0.646-0.001-0.97-0.001c0,0,0,0.001,0,0.001
		c-0.337,0-0.674-0.007-1.011,0.001c-0.464,0.012-0.695,0.249-0.706,0.711c-0.005,0.196,0.01,0.394-0.004,0.589
		C12.943,3.392,13.028,3.5,13.348,3.494z M13.397,2.451c0.098-0.033,0.206-0.045,0.309-0.047c0.28-0.006,0.561-0.002,0.841-0.002
		c0,0.011,0,0.022,0,0.033c0.377,0,0.757-0.022,1.133,0.008c0.267,0.021,0.361,0.204,0.306,0.469
		c-0.046,0.222-0.193,0.301-0.456,0.291c-0.398-0.016-0.797-0.008-1.195-0.015c-0.313-0.005-0.628,0.001-0.938-0.035
		c-0.093-0.011-0.213-0.136-0.246-0.233C13.098,2.759,13.25,2.5,13.397,2.451z"/>
	<path d="M29.35,19.496c-0.366-0.563-0.718-1.14-1.256-1.567c-0.113-0.09-0.193-0.132-0.326-0.019
		c-0.183,0.157-0.382,0.3-0.59,0.423c-0.21,0.125-0.249,0.215-0.12,0.417c0.398,0.628,0.797,1.256,1.196,1.883
		c0.079,0.125,0.156,0.252,0.252,0.362c0.033,0.039,0.122,0.029,0.187,0.042c-0.01-0.06-0.004-0.128-0.031-0.178
		c-0.204-0.374-0.438-0.733-0.616-1.119c-0.163-0.354-0.288-0.714-0.674-0.898c-0.058-0.027-0.122-0.15-0.104-0.201
		c0.028-0.078,0.113-0.154,0.193-0.19c0.06-0.027,0.152-0.001,0.224,0.022c0.279,0.089,0.444,0.312,0.598,0.54
		c0.332,0.495,0.653,0.999,0.987,1.494c0.085,0.126,0.189,0.248,0.31,0.34c0.064,0.049,0.191,0.059,0.271,0.03
		c0.065-0.023,0.101-0.129,0.151-0.201c-0.056-0.134-0.09-0.249-0.148-0.351C29.69,20.046,29.526,19.767,29.35,19.496z"/>
	<path d="M27.564,12.167c-0.102,0.054-0.178,0.155-0.265,0.234c0.115,0.054,0.23,0.108,0.346,0.162
		c0.006,0.003,0.014,0.001,0.021,0.002c0.269,0.017,0.739-0.28,0.863-0.559c0.14-0.313,0.276-0.629,0.399-0.95
		c0.163-0.425,0.318-0.854,0.465-1.285c0.06-0.173-0.002-0.326-0.173-0.402c-0.169-0.075-0.289,0.032-0.37,0.16
		c-0.09,0.141-0.161,0.295-0.222,0.452c-0.219,0.57-0.433,1.142-0.641,1.716C27.909,11.915,27.766,12.058,27.564,12.167z"/>
	<path d="M25.583,11.06c0.036,0.072,0.112,0.125,0.17,0.187c0.028-0.079,0.08-0.156,0.081-0.235c0.008-0.513,0.004-1.026,0.004-1.54
		c-0.001,0-0.002,0-0.004,0c0-0.513,0.002-1.026-0.001-1.54c0-0.076-0.004-0.157-0.029-0.228c-0.047-0.131-0.149-0.174-0.229-0.046
		c-0.086,0.137-0.164,0.295-0.187,0.452c-0.037,0.27-0.042,0.546-0.036,0.819C25.367,9.646,25.247,10.379,25.583,11.06z"/>
	<path d="M27.222,11.627c0.113-0.36,0.199-0.729,0.305-1.092c0.024-0.085,0.087-0.159,0.124-0.242
		c0.061-0.138,0.106-0.281,0.173-0.416c0.038-0.08,0.1-0.149,0.158-0.216c0.045-0.051,0.104-0.089,0.155-0.133
		c-0.071-0.048-0.143-0.096-0.262-0.176c-0.096,0.121-0.206,0.211-0.252,0.326c-0.179,0.449-0.333,0.908-0.503,1.36
		c-0.112,0.302-0.239,0.599-0.35,0.902c-0.023,0.064-0.004,0.145-0.005,0.218c0.075-0.023,0.185-0.023,0.22-0.074
		C27.082,11.944,27.17,11.789,27.222,11.627z"/>
	<path d="M25.787,16.821c-0.024-0.159-0.116-0.187-0.229-0.076c-0.049,0.048-0.111,0.108-0.117,0.169
		c-0.034,0.36-0.085,0.728,0.174,1.039c0.032,0.038,0.088,0.057,0.134,0.084c0.029-0.051,0.078-0.1,0.083-0.151
		c0.013-0.132,0.005-0.266,0.005-0.398c0.006,0,0.013-0.001,0.02-0.002C25.833,17.264,25.82,17.041,25.787,16.821z"/>
	<path d="M12.628,11.394c-0.017-0.018-0.034-0.035-0.05-0.052c-0.279,0.065-0.403,0.194-0.363,0.427
		C12.364,11.634,12.496,11.514,12.628,11.394z"/>
	<path d="M7.688,20.635c0.039,0.003,0.078,0.006,0.117,0.009c0.005-0.083,0.013-0.166,0.011-0.249c0-0.006-0.072-0.011-0.111-0.016
		C7.699,20.464,7.693,20.549,7.688,20.635z"/>
</g>
</svg>
