<?xml version="1.0" encoding="iso-8859-1"?>
<!-- Generator: Adobe Illustrator 16.0.0, SVG Export Plug-In . SVG Version: 6.00 Build 0)  -->
<!DOCTYPE svg PUBLIC "-//W3C//DTD SVG 1.1//EN" "http://www.w3.org/Graphics/SVG/1.1/DTD/svg11.dtd">
<svg version="1.1" id="Layer_1" xmlns="http://www.w3.org/2000/svg" xmlns:xlink="http://www.w3.org/1999/xlink" x="0px" y="0px"
	 width="231.433px" height="231.434px" viewBox="84.284 0 231.433 231.434"
	 style="enable-background:new 84.284 0 231.433 231.434;" xml:space="preserve">
<g id="Layer_1_1_">
</g>
<g id="Layer_2">
</g>
<g id="Layer_3" style="display:none;">
	<rect x="174.546" y="539.938" style="display:inline;fill:none;" width="841.458" height="127.562"/>
	
		<text transform="matrix(1 0 0 1 344.3645 585.585)" style="display:inline; font-family:'TwCenMT-Regular'; font-size:72; letter-spacing:36;">GLEESON</text>
	
		<line style="display:inline;fill:none;stroke:#000000;stroke-width:2;stroke-miterlimit:10;" x1="271.68" y1="520.938" x2="930.146" y2="520.938"/>
	
		<line style="display:inline;fill:none;stroke:#000000;stroke-width:2;stroke-miterlimit:10;" x1="271.68" y1="605.938" x2="930.146" y2="605.938"/>
	<rect x="386.035" y="634.75" style="display:inline;fill:none;" width="418.479" height="67.496"/>
	
		<text transform="matrix(1 0 0 1 551.1838 648.0635)" style="display:inline; font-family:'TwCenMT-Regular'; font-size:21; letter-spacing:3;">DESIGN</text>
</g>
<g id="Layer_4">
	<g>
		<g>
			<g>
				<path d="M200,231.434c-63.807,0-115.716-51.91-115.716-115.718C84.284,51.91,136.194,0,200,0
					c63.806,0,115.717,51.91,115.717,115.716C315.717,179.523,263.806,231.434,200,231.434z M200,1.33
					c-63.073,0-114.387,51.313-114.387,114.386c0,63.073,51.313,114.388,114.387,114.388c63.072,0,114.387-51.313,114.387-114.388
					C314.387,52.644,263.073,1.33,200,1.33z"/>
			</g>
		</g>
		<g>
			<g>
				<g>
					<path d="M197.914,226.764l-1.719-0.058c-28.86-0.974-55.84-12.95-75.969-33.724c-20.176-20.824-31.288-48.265-31.288-77.267
						s11.112-56.442,31.288-77.266c20.128-20.774,47.107-32.75,75.968-33.723l1.719-0.058v108.96h-56.51v4.173h56.51
						L197.914,226.764L197.914,226.764z M194.588,8.122c-27.346,1.352-52.849,12.903-71.975,32.643
						c-19.571,20.2-30.351,46.818-30.351,74.952c0,28.134,10.779,54.752,30.351,74.952c19.126,19.739,44.629,31.291,71.975,32.644
						V121.128H138.08v-10.824h56.509L194.588,8.122L194.588,8.122z"/>
				</g>
			</g>
			<g>
				<g>
					<path d="M202.087,226.764V4.669l1.719,0.058c28.861,0.973,55.84,12.949,75.969,33.724
						c20.177,20.823,31.287,48.264,31.287,77.265c0,29.002-11.11,56.442-31.287,77.267c-20.128,20.773-47.107,32.75-75.969,33.724
						L202.087,226.764z M205.412,8.122v215.188c27.346-1.352,52.849-12.902,71.974-32.643c19.572-20.2,30.35-46.818,30.35-74.952
						c0-28.133-10.777-54.752-30.35-74.952C258.261,21.025,232.758,9.474,205.412,8.122z"/>
				</g>
			</g>
		</g>
	</g>
</g>
</svg>
