<?xml version="1.0" encoding="iso-8859-1"?>
<!-- Generator: Adobe Illustrator 16.0.0, SVG Export Plug-In . SVG Version: 6.00 Build 0)  -->
<!DOCTYPE svg PUBLIC "-//W3C//DTD SVG 1.1//EN" "http://www.w3.org/Graphics/SVG/1.1/DTD/svg11.dtd">
<svg version="1.1" xmlns="http://www.w3.org/2000/svg" xmlns:xlink="http://www.w3.org/1999/xlink" x="0px" y="0px" width="400px"
	 height="340.707px" viewBox="0 0 400 340.707" style="enable-background:new 0 0 400 340.707;" xml:space="preserve">
<g id="Layer_1">
</g>
<g id="Layer_2">
</g>
<g id="Layer_4">
	<g>
		<g>
			<g>
				<path d="M200,231.433c-63.806,0-115.716-51.91-115.716-115.717C84.284,51.91,136.194,0,200,0s115.717,51.91,115.717,115.716
					C315.717,179.523,263.806,231.433,200,231.433z M200,1.33c-63.073,0-114.386,51.313-114.386,114.386
					c0,63.073,51.313,114.387,114.386,114.387s114.387-51.313,114.387-114.387C314.387,52.644,263.073,1.33,200,1.33z"/>
			</g>
		</g>
		<g>
			<g>
				<g>
					<path d="M197.914,226.764l-1.718-0.058c-28.861-0.973-55.84-12.95-75.969-33.724c-20.176-20.824-31.288-48.264-31.288-77.266
						c0-29.002,11.112-56.442,31.288-77.266C140.355,17.676,167.334,5.7,196.195,4.727l1.718-0.058v108.96h-56.509v4.173h56.509
						V226.764z M194.588,8.122c-27.346,1.352-52.848,12.903-71.974,32.643c-19.572,20.2-30.351,46.818-30.351,74.952
						s10.779,54.752,30.351,74.952c19.126,19.739,44.628,31.291,71.974,32.643V121.128H138.08v-10.824h56.509V8.122z"/>
				</g>
			</g>
			<g>
				<g>
					<path d="M202.087,226.764V4.669l1.719,0.058c28.861,0.973,55.84,12.949,75.969,33.724
						c20.176,20.823,31.287,48.264,31.287,77.265c0,29.002-11.111,56.442-31.287,77.266c-20.128,20.774-47.108,32.751-75.969,33.724
						L202.087,226.764z M205.412,8.122v215.189c27.346-1.352,52.849-12.903,71.974-32.643c19.572-20.2,30.35-46.818,30.35-74.952
						c0-28.133-10.778-54.752-30.35-74.952C258.261,21.025,232.758,9.474,205.412,8.122z"/>
				</g>
			</g>
		</g>
		<g>
			<path d="M74.799,277.587l0.561,6.687h-0.561c-0.639-1.964-1.547-3.386-2.724-4.267c-1.177-0.881-2.607-1.321-4.291-1.321
				c-1.247,0-2.361,0.246-3.343,0.737c-0.982,0.491-1.816,1.169-2.501,2.034c-0.687,0.865-1.208,1.886-1.567,3.062
				c-0.358,1.177-0.538,2.451-0.538,3.823c0,2.011,0.397,3.858,1.192,5.541c0.39,0.842,0.845,1.566,1.368,2.174
				s1.087,1.111,1.695,1.508s1.243,0.689,1.905,0.876s1.329,0.281,1.999,0.281c1.559,0,3.024-0.39,4.396-1.169v-6.149
				c0-0.53-0.02-0.962-0.059-1.298c-0.039-0.335-0.102-0.6-0.187-0.795s-0.191-0.343-0.315-0.444
				c-0.125-0.102-0.273-0.199-0.444-0.292c-0.343-0.171-0.935-0.257-1.777-0.257v-0.608h8.23v0.608h-0.397
				c-0.359,0-0.663,0.039-0.912,0.117c-0.249,0.078-0.456,0.226-0.619,0.444c-0.164,0.218-0.281,0.53-0.351,0.936
				c-0.07,0.405-0.105,0.935-0.105,1.59v6.5c-0.608,0.327-1.204,0.612-1.789,0.854s-1.173,0.433-1.765,0.573
				c-1.216,0.312-2.518,0.468-3.905,0.468c-1.777,0-3.386-0.273-4.828-0.818c-1.441-0.545-2.677-1.302-3.706-2.268
				s-1.824-2.104-2.385-3.414c-0.561-1.309-0.842-2.735-0.842-4.278c0-1.855,0.452-3.647,1.356-5.377
				c1.044-2.026,2.502-3.593,4.372-4.7c1.559-0.904,3.398-1.356,5.518-1.356c0.421,0,0.795,0.012,1.122,0.035
				c0.328,0.023,0.667,0.07,1.017,0.14c0.351,0.07,0.732,0.171,1.146,0.304c0.413,0.132,0.916,0.308,1.508,0.526
				c0.592,0.234,0.99,0.343,1.192,0.327c0.187,0,0.351-0.089,0.491-0.269c0.141-0.179,0.226-0.534,0.257-1.064H74.799z"/>
			<path d="M120.624,293.438l0.515,0.094l-1.824,5.775h-16.46v-0.584h0.818c0.873,0,1.512-0.288,1.917-0.865
				c0.218-0.343,0.327-1.114,0.327-2.314v-13.724c0-1.31-0.148-2.135-0.444-2.479c-0.405-0.467-1.005-0.701-1.8-0.701h-0.818v-0.584
				h9.633v0.584c-0.577,0-1.056,0.027-1.438,0.082c-0.382,0.055-0.698,0.133-0.947,0.234c-0.25,0.102-0.444,0.222-0.584,0.362
				c-0.14,0.141-0.257,0.296-0.351,0.468c-0.156,0.312-0.234,1.114-0.234,2.408v13.35c0,0.732,0.055,1.263,0.164,1.59
				s0.327,0.553,0.655,0.678c0.28,0.093,1.099,0.14,2.455,0.14h1.543c1.636,0,2.782-0.117,3.437-0.351
				c0.328-0.109,0.639-0.265,0.936-0.468c0.296-0.203,0.584-0.468,0.865-0.795c0.281-0.327,0.553-0.725,0.818-1.192
				S120.344,294.109,120.624,293.438z"/>
			<path d="M152.468,279.224v8.394h4.653c0.686,0,1.239-0.062,1.66-0.187c0.421-0.125,0.751-0.312,0.994-0.561
				c0.242-0.25,0.409-0.569,0.502-0.959c0.094-0.39,0.156-0.849,0.187-1.379h0.584v7.388h-0.584
				c-0.078-0.608-0.167-1.114-0.269-1.52c-0.102-0.405-0.266-0.729-0.491-0.97c-0.226-0.242-0.542-0.413-0.947-0.515
				c-0.406-0.101-0.951-0.152-1.637-0.152h-4.653v7.014c0,0.53,0.008,0.951,0.023,1.262c0.016,0.312,0.078,0.55,0.187,0.713
				s0.281,0.269,0.515,0.315c0.234,0.047,0.576,0.07,1.029,0.07h3.601c0.608,0,1.122-0.016,1.543-0.047s0.783-0.093,1.087-0.187
				c0.304-0.093,0.573-0.222,0.807-0.386c0.234-0.164,0.483-0.37,0.749-0.62c0.623-0.608,1.286-1.582,1.987-2.922h0.631
				l-1.847,5.331h-16.366v-0.584h0.748c0.202,0,0.413-0.023,0.631-0.07c0.218-0.046,0.424-0.113,0.62-0.199
				c0.195-0.085,0.37-0.199,0.526-0.339s0.265-0.304,0.328-0.491c0.125-0.343,0.187-1.029,0.187-2.058v-13.794
				c0-1.356-0.133-2.19-0.397-2.501c-0.375-0.421-1.005-0.631-1.894-0.631h-0.748v-0.584h16.366v4.652h-0.374
				c-0.156-0.764-0.324-1.375-0.503-1.835c-0.179-0.46-0.417-0.814-0.713-1.064c-0.296-0.25-0.675-0.409-1.134-0.479
				c-0.459-0.07-1.048-0.105-1.765-0.105H152.468z"/>
			<path d="M196.002,279.224v8.394h4.652c0.686,0,1.239-0.062,1.66-0.187c0.421-0.125,0.752-0.312,0.994-0.561
				c0.242-0.25,0.409-0.569,0.503-0.959c0.093-0.39,0.156-0.849,0.187-1.379h0.584v7.388h-0.584
				c-0.078-0.608-0.168-1.114-0.269-1.52c-0.102-0.405-0.265-0.729-0.491-0.97c-0.226-0.242-0.542-0.413-0.947-0.515
				c-0.405-0.101-0.951-0.152-1.637-0.152h-4.652v7.014c0,0.53,0.008,0.951,0.023,1.262c0.016,0.312,0.078,0.55,0.187,0.713
				c0.109,0.164,0.28,0.269,0.514,0.315c0.234,0.047,0.577,0.07,1.029,0.07h3.601c0.608,0,1.122-0.016,1.543-0.047
				s0.783-0.093,1.087-0.187c0.304-0.093,0.573-0.222,0.807-0.386c0.233-0.164,0.483-0.37,0.748-0.62
				c0.624-0.608,1.286-1.582,1.987-2.922h0.631l-1.847,5.331h-16.366v-0.584h0.748c0.203,0,0.413-0.023,0.631-0.07
				c0.218-0.046,0.425-0.113,0.62-0.199c0.195-0.085,0.37-0.199,0.526-0.339c0.156-0.14,0.265-0.304,0.328-0.491
				c0.125-0.343,0.187-1.029,0.187-2.058v-13.794c0-1.356-0.132-2.19-0.397-2.501c-0.374-0.421-1.005-0.631-1.894-0.631h-0.748
				v-0.584h16.366v4.652h-0.374c-0.156-0.764-0.324-1.375-0.503-1.835c-0.179-0.46-0.417-0.814-0.713-1.064
				s-0.674-0.409-1.134-0.479c-0.46-0.07-1.048-0.105-1.765-0.105H196.002z"/>
			<path d="M247.532,277.587v7.341h-0.584c-0.265-1.979-0.912-3.491-1.94-4.536s-2.338-1.566-3.928-1.566
				c-0.546,0-1.044,0.093-1.497,0.28c-0.452,0.188-0.85,0.433-1.192,0.737c-0.343,0.304-0.608,0.651-0.795,1.041
				s-0.281,0.795-0.281,1.215c0,0.39,0.078,0.76,0.234,1.111c0.156,0.351,0.639,0.9,1.45,1.648c1.356,0.857,2.564,1.566,3.624,2.127
				c0.998,0.545,2.346,1.372,4.045,2.478c0.732,0.562,1.293,1.228,1.683,1.999c0.39,0.772,0.584,1.578,0.584,2.42
				c0,0.795-0.164,1.551-0.491,2.268c-0.328,0.717-0.783,1.344-1.368,1.882c-0.584,0.538-1.29,0.966-2.116,1.286
				s-1.73,0.479-2.712,0.479c-0.624,0-1.2-0.047-1.73-0.141c-0.093-0.016-0.339-0.082-0.736-0.199
				c-0.397-0.117-0.822-0.237-1.274-0.362c-0.452-0.125-0.873-0.242-1.263-0.351c-0.39-0.109-0.616-0.164-0.678-0.164
				c-0.265,0-0.471,0.078-0.62,0.234c-0.148,0.156-0.261,0.483-0.339,0.982h-0.584v-7.295h0.584
				c0.281,1.497,0.647,2.642,1.099,3.437c0.218,0.374,0.51,0.721,0.876,1.041c0.366,0.319,0.779,0.6,1.239,0.841
				c0.46,0.242,0.955,0.429,1.484,0.562c0.53,0.132,1.068,0.199,1.613,0.199c0.655,0,1.243-0.094,1.766-0.281
				c0.522-0.187,0.966-0.44,1.333-0.76s0.647-0.69,0.842-1.11c0.195-0.421,0.292-0.865,0.292-1.333c0-0.53-0.144-1.06-0.433-1.59
				c-0.288-0.53-0.775-1.052-1.461-1.566c-0.67-0.405-1.465-0.881-2.385-1.426c-1.762-1.013-3.328-1.987-4.7-2.922
				c-0.764-0.608-1.344-1.274-1.742-1.999s-0.596-1.531-0.596-2.42c0-0.748,0.156-1.461,0.468-2.139
				c0.312-0.678,0.744-1.274,1.297-1.789c0.553-0.515,1.212-0.92,1.976-1.216c0.764-0.296,1.59-0.444,2.479-0.444
				c1.122,0,2.314,0.273,3.577,0.818c0.296,0.125,0.545,0.226,0.748,0.304c0.203,0.078,0.366,0.109,0.491,0.094
				c0.28,0,0.506-0.078,0.678-0.234s0.304-0.483,0.397-0.982H247.532z"/>
			<path d="M286.344,277.587c1.356,0,2.649,0.281,3.881,0.842s2.314,1.333,3.25,2.314c0.935,0.982,1.679,2.14,2.232,3.472
				c0.554,1.333,0.83,2.778,0.83,4.337c0,1.605-0.276,3.094-0.83,4.466c-0.553,1.372-1.301,2.56-2.244,3.565
				c-0.943,1.005-2.05,1.792-3.32,2.361c-1.27,0.569-2.622,0.854-4.056,0.854c-1.45,0-2.806-0.273-4.068-0.818
				c-1.262-0.545-2.357-1.313-3.285-2.303c-0.928-0.99-1.66-2.17-2.198-3.542c-0.538-1.372-0.807-2.884-0.807-4.536
				c0-1.528,0.269-2.961,0.807-4.302c0.538-1.34,1.278-2.505,2.221-3.495c0.943-0.99,2.061-1.773,3.355-2.35
				C283.405,277.875,284.816,277.587,286.344,277.587z M286.04,278.732c-1.076,0-2.03,0.23-2.864,0.69
				c-0.833,0.459-1.535,1.114-2.104,1.964s-1.001,1.878-1.298,3.086c-0.296,1.208-0.444,2.568-0.444,4.08
				c0,1.497,0.144,2.864,0.432,4.103c0.289,1.239,0.717,2.307,1.286,3.203c0.569,0.896,1.274,1.59,2.116,2.081
				c0.841,0.491,1.808,0.736,2.899,0.736c0.982,0,1.89-0.187,2.724-0.561s1.562-0.955,2.186-1.742s1.111-1.792,1.461-3.016
				s0.526-2.685,0.526-4.384c0-1.605-0.144-3.043-0.433-4.313c-0.288-1.271-0.725-2.346-1.309-3.227
				c-0.584-0.881-1.309-1.551-2.174-2.011C288.179,278.962,287.177,278.732,286.04,278.732z"/>
			<path d="M321.297,278.055h5.751l13,15.945v-12.251c0-0.717-0.051-1.286-0.152-1.707c-0.102-0.421-0.25-0.733-0.444-0.936
				s-0.433-0.331-0.713-0.386c-0.281-0.054-0.6-0.082-0.958-0.082h-0.749v-0.584h7.412v0.584h-0.771
				c-0.374,0-0.701,0.031-0.982,0.093c-0.281,0.062-0.515,0.203-0.702,0.421s-0.327,0.53-0.421,0.936
				c-0.093,0.405-0.14,0.958-0.14,1.66v17.909h-0.561l-14.005-17.114v13.093c0,0.732,0.051,1.305,0.152,1.718
				c0.101,0.413,0.245,0.721,0.432,0.923s0.421,0.328,0.702,0.374c0.28,0.047,0.6,0.07,0.958,0.07h0.748v0.584h-7.388v-0.584h0.748
				c0.375,0,0.702-0.031,0.982-0.094c0.28-0.062,0.518-0.198,0.713-0.409c0.195-0.21,0.339-0.518,0.433-0.923
				c0.093-0.405,0.14-0.958,0.14-1.66V280.86c-0.312-0.374-0.573-0.67-0.783-0.889s-0.409-0.397-0.596-0.538
				s-0.39-0.257-0.608-0.351c-0.218-0.094-0.491-0.195-0.818-0.304c-0.312-0.094-0.771-0.14-1.379-0.14V278.055z"/>
		</g>
		<g>
			<path d="M171.598,331.617h2.107c1.668,0,2.91,0.441,3.723,1.323c0.814,0.882,1.221,1.889,1.221,3.021
				c0,1.141-0.42,2.15-1.262,3.028c-0.841,0.877-2.064,1.315-3.668,1.315h-2.121V331.617z M172.785,332.776v6.355h0.068
				c0.882,0,1.546-0.04,1.991-0.119c0.446-0.08,0.868-0.253,1.269-0.522c0.4-0.268,0.718-0.624,0.955-1.067
				c0.236-0.443,0.354-0.931,0.354-1.462c0-0.669-0.188-1.273-0.566-1.814c-0.377-0.541-0.829-0.904-1.354-1.091
				c-0.525-0.186-1.231-0.279-2.117-0.279H172.785z"/>
			<path d="M182.717,331.617h4.814v1.187h-3.641v2.168h3.641v1.173h-3.641v2.987h3.641v1.173h-4.814V331.617z"/>
			<path d="M197.028,332.585l-0.962,0.771c-0.254-0.263-0.484-0.46-0.69-0.59c-0.206-0.129-0.505-0.194-0.895-0.194
				c-0.427,0-0.772,0.096-1.038,0.289s-0.398,0.441-0.398,0.744c0,0.263,0.116,0.496,0.347,0.697
				c0.232,0.202,0.627,0.422,1.185,0.662c0.558,0.24,0.993,0.463,1.303,0.67c0.311,0.206,0.566,0.435,0.766,0.685
				c0.199,0.25,0.348,0.513,0.446,0.791c0.098,0.276,0.146,0.57,0.146,0.878c0,0.722-0.263,1.338-0.788,1.846
				c-0.525,0.509-1.16,0.764-1.906,0.764c-0.728,0-1.37-0.2-1.927-0.597c-0.557-0.398-0.985-0.994-1.285-1.791l1.187-0.333
				c0.432,0.977,1.093,1.466,1.984,1.466c0.432,0,0.791-0.129,1.078-0.388c0.286-0.258,0.43-0.584,0.43-0.979
				c0-0.236-0.075-0.472-0.226-0.71c-0.15-0.238-0.336-0.434-0.56-0.588c-0.223-0.154-0.578-0.331-1.064-0.53
				c-0.486-0.2-0.861-0.382-1.123-0.548c-0.263-0.166-0.49-0.363-0.681-0.592c-0.191-0.23-0.332-0.458-0.421-0.685
				c-0.089-0.228-0.133-0.47-0.133-0.729c0-0.623,0.25-1.152,0.75-1.591s1.107-0.658,1.821-0.658c0.473,0,0.952,0.102,1.439,0.308
				C196.301,331.855,196.706,332.167,197.028,332.585z"/>
			<path d="M201.479,331.617h1.173v8.688h-1.173V331.617z"/>
			<path d="M215.748,333.008l-0.879,0.866c-0.887-0.868-1.912-1.302-3.076-1.302c-1.018,0-1.866,0.328-2.543,0.981
				c-0.678,0.654-1.017,1.471-1.017,2.452c0,0.858,0.328,1.632,0.985,2.319c0.657,0.688,1.562,1.032,2.717,1.032
				c1.732,0,2.821-0.752,3.267-2.257h-2.346v-1.187h3.703c0,0.595-0.041,1.069-0.12,1.423c-0.08,0.354-0.245,0.745-0.495,1.171
				s-0.583,0.809-0.999,1.147c-0.416,0.338-0.861,0.58-1.336,0.726c-0.476,0.146-1.042,0.218-1.702,0.218
				c-1.5,0-2.697-0.472-3.59-1.415c-0.893-0.942-1.34-2.021-1.34-3.233c0-1.277,0.457-2.364,1.371-3.261
				c0.913-0.896,2.021-1.346,3.321-1.346c0.773,0,1.479,0.117,2.117,0.352C214.426,331.929,215.08,332.367,215.748,333.008z"/>
			<path d="M220.846,331.269l6.423,6.603v-6.255h1.187v9.09l-6.424-6.574v6.171h-1.186V331.269z"/>
		</g>
		<g>
			<rect y="263.742" width="400" height="1.33"/>
		</g>
		<g>
			<rect y="311.625" width="400" height="1.33"/>
		</g>
	</g>
</g>
</svg>
